/* XPM */
static char *_3479e081ba842e2d10fdb5442943e7aCPr54WSiNYbGVZpT[] = {
/* columns rows colors chars-per-pixel */
"64 64 3 1 ",
"  c black",
". c #7B4D33",
"X c #F9C206",
/* pixels */
"                                                                ",
"                                                                ",
"                                                                ",
"                                                                ",
"                                                                ",
"                                                                ",
"                                                                ",
"                                                                ",
"                                                                ",
"                                                                ",
"                                                                ",
"                                                                ",
"                                                                ",
"                  ..                                            ",
"                  ..   .                                        ",
"                  .. ...                                        ",
"                  .. ...                                        ",
"                   X....                                        ",
"                   XX                                           ",
"                   XX                                           ",
"                   XX                                           ",
"                   XX                                           ",
"                  XXX                                           ",
"                 XXXX                                           ",
"                 XXXX                                           ",
"                 XXXXXX                                         ",
"                 XXXXXX                                         ",
"               XXXXXXXXX                                        ",
"               XXXXXXXXX                                        ",
"               XXX.XXXXXX                                       ",
"               XXXXXXXXXXX                                      ",
"               XXXXXXXXXXXX                                     ",
"               XXXXXXXX.XXX                                     ",
"               XXXXXXXXXXXX                                     ",
"               XXXXXXXXXXXXXX                   XX              ",
"               XX.XXXXXXXXXXXX               XXXXX              ",
"               XXXXXXXXXXXXXXXX            XXXXXXX              ",
"               XXXXXX.XXXX.XXXX            XXX.XXX              ",
"                 XXXXXXXXXXXXXXXX      XXXXXXXXXX.              ",
"                 XXXXXXXXXXXXXXXXXXXXXXXXXXXXXXX.               ",
"                  XXXXXXXXXXXXX.XXXXXXXXX.XXXXXX.               ",
"                  XXXX.XXXXXXXXXXXXXXXXXXXXXXXX.                ",
"                  XXXXXXXXX.XXXXXXXX.XXXXXXXXXX.                ",
"                   XXXXXXXXXXXXXXXXXXXXXXXXX....                ",
"                   XXXXXXXXXXXXXXXXXXXXXXX...                   ",
"                       XXXXXXXX.XXXXXXX...                      ",
"                          XXXXXXXXXX...                         ",
"                          XXXXXXXXXX...                         ",
"                                                                ",
"                                                                ",
"                                                                ",
"                                                                ",
"                                                                ",
"                                                                ",
"                                                                ",
"                                                                ",
"                                                                ",
"                                                                ",
"                                                                ",
"                                                                ",
"                                                                ",
"                                                                ",
"                                                                ",
"                                                                "
};
