/* XPM */
static char *_1e3171195a14c9a8e29a1b2738cb29efJ5n1hqtGphUOyDS[] = {
/* columns rows colors chars-per-pixel */
"64 64 11 1 ",
"  c #1F0E1C",
". c #3E2137",
"X c #647D34",
"o c #584563",
"O c #9D303B",
"+ c #9A6348",
"@ c #E4943A",
"# c #D79B7D",
"$ c #C0C741",
"% c #34859D",
"& c #8C8FAE",
/* pixels */
"     %&&&&&oXXX& XXX XXXXXXX   .++++++OOOOOO+++. XXX &&&&&&oo   ",
"     %&&&&& XXX&       X XX    .####++OOOOOO+++.XXXX &&&&&&&o   ",
" %  %%% X   $X o               .+++++O++OOO@@++. XX   &&&&&&&   ",
" %  %%%%X  $XX                  .++++O+++OOO++.  XXX  &&&&&&    ",
"    %% %X                      X.+++++++++++++.       $X&&&     ",
"    %% %%                     X .+++++++++++++.       $XXXX$    ",
"    %  X%                     XO.+++++++++++++.      $X XXXX$   ",
"    %  X                      OO.+++++####++++.          XXXXXX ",
"    %  XO                       .+++++++++++++.          X      ",
"       XOOO                     .+++++++++####.           X     ",
"      OX OO                     .+++$+++++++++.           XO    ",
"     OOX                       $.+++X##+++++++.           XOO   ",
"     O X                       XXX$$X####+++++.            X    ",
"        XO                    OXXXXXX++++++++. X          OX    ",
"        XOO                   O XXXX+++++++X#. $X        OOX    ",
"       OX OO                     .XX+++++++XX. $X         X     ",
"      OO X                       .+++++++++XXX$XX         XO    ",
"      O  X                       .+++++++++XXXXXX         XOO   ",
"        OX                       .++++++++++XXXX          O     ",
"       OOXO                       .++++++++++.            O     ",
"       O  XO                      .++++++++++.                  ",
"          XOO                   X$.+####+++++.                  ",
"          OX                    XX.+++###++++.                  ",
"         OOX                      .+++++++++.                   ",
"         O XO                     .+++++++++.                   ",
"           O                      .+++++++++.$X                 ",
"                                  .+++++++++.$X                 ",
"                                  .+++++++++.XX                 ",
"                                  .+++++++++.X                  ",
"                                  .++++++##+.                   ",
"                                  .+++######.                   ",
"                                   .+++++###.                   ",
"                                   .++++++++.                   ",
"                                  o.+++++++.                    ",
"                                   .+++++++.                    ",
"                                    .++++++.                    ",
"                                    .++++++.                    ",
"                                    .++++++.                    ",
"                                    .+#++++.                    ",
"                                   .#+++++++.                   ",
"                                   .++++++++.                   ",
"                                   .+++++###.                   ",
"                                   .++++++###.                  ",
"                                   .+++++++++.                  ",
"                                   .##++++++++.                 ",
"   @                               .++++++.+++.                 ",
"  @@@                              .+++++. .++.X                ",
"   @@                              .+++++. .#++.X    @          ",
"   @@@                             .+++++.  .+#.X    @          ",
"    @@                             .++###.   .+.X   @@          ",
"     @                             .++++.       X   @@          ",
"    @@                             OO+++.$     X    @@          ",
"   @@@                          $ XOO+++.$$  $ XX  @@@          ",
"   XX$$                         $ X$$+++.$$  $$ X  @@     X     ",
"$  XX$$      X                 $$ XX$OO$$X$X$$$XX   X     X     ",
"X$$XX$X$$    X         $       $$XXX$OO$XXXX$XXXX$  X     X    $",
"XX$XXXXX$X $ X        XX X      XXXXXX   $ XX    $  XX    X   $$",
"XX$XXXXX$X $XX      X$$$XX$  $ XXXXXXXX $X XX    XX $X   XX$  $X",
"XXXXXXXXXXX$XXXXXXXXXXXXXXXXX$$XXXX$XXX $X XX X$$XX$$X$ XX$$$$OO",
"XX$XXXXOOXX$X$$X$XXXXXXXXXXXXXXXXX$$XOOX$X XX X$$XX$$$$XXXX$$$OO",
"XX$$XXXOOXXXXXXX$XXOXXXXX$XXXXXXXX$$XOOXXXXXXXXX$$XX$$$XOOX$$$XX",
"XXX$XXXXX$$XXXXXXXXXX$XXX$XXXXXXXOOXXXXXXXX$$XXXX$X$$XXXOOXX$XXX",
"$$$$XXX$X$$XXXX$XXXXX$$XXXXXXX$XXOOXXXXXXX$$$XXXX$XXXXXXXXXXXXXX",
"$$$$$XXXX$$XXX$$$XXX$$$XXXXXXX$$XXXXXXXXXX$$$$$XXXXXXXXX$$XXX$$$"
};
