/* XPM */
static char *_e176929cb244c37bca9909638f928f2IK3iTUi8AT1hf8r8[] = {
/* columns rows colors chars-per-pixel */
"64 64 13 1 ",
"  c #1F0E1C",
". c #3E2137",
"X c #647D34",
"o c #70377F",
"O c #17434B",
"+ c #9D303B",
"@ c #9A6348",
"# c #D26471",
"$ c #E4943A",
"% c #D79B7D",
"& c #C0C741",
"* c #34859D",
"= c #F5EDBA",
/* pixels */
"XXXXXXXX#####XXX      X&  XX &XX    +++#   .@@X&X@@.   &&&@X    ",
"XXXXXXXX######O**     X  X&X  &     ++++#  .XXX@X@@. &&&&@XXX   ",
"XXXXXXXX#####XXOO*      X&X  X&X   +#+++#  .@@X@@@@&&&&&@XX@XX  ",
"XXXXXXXX#XX#X#XX       X& X  X X   +#++#+# .@X@@@&&&&&@@X &@XXX ",
"XXXXXXXX#XX#XX#X               X  +# ++# # .@@@@X@@@@@XX   &@XX ",
"&XXXXXXX#XX#XXO*                  +#+#++#+#.@@@@@XXXXX     &@XXX",
"&XXXXXXX#XX#XXXO*                 +#+#+ # +.@@@@@@@.       &@XXX",
"&XXXXXXX#XX#*XXXO*               +# +#+ +# .@@@@@@@.        &@XX",
"&XXXXX***XX***XX                 +# +#+ +# .@@@@@@@.        &@XX",
"&XX@&X**OXXO**XX                +#  + +  +# .@@@@@@.X        &@X",
" X@@&X*OOXXO**XX                +   + #+ +# .@@@@@@.X         &@",
"+++@&X*OOXX OOXX               $$  +# #+  +#.@@@@@@X            ",
"+ +@&XXOOXX  OXX                $  +# #+  +#.@@#@@X.            ",
"  @@&XXOXXX   X                    +# #+   +#@#$#X@.            ",
"  @@&XX &XX   +                    +# #+   +#@X#XX@.            ",
"  @@&XX &XX                        +# #+    +X@@@X@.            ",
"  @@@X. &XX                       +#  #+    $@@@@X@.            ",
"   .@+. &XX                       +#  #+    $$$@XX@.            ",
"   .+++  X                        +#  $+    $$@@X#@.            ",
"   .+@+  +                        $   $$    $.@@#$#.            ",
"   .@@. +++                           $ $   X.@@@#@.            ",
"   .@@. + +                                  .@@@@@.            ",
"   .@@.                                      .@@@@@.            ",
"   .@@@.                                     .@@@@@.            ",
"   .@@@.                                     .@@@@@.            ",
"   .@@@.                                     .@@@@@..           ",
"   .@@@.          @@                         .@@@@@@.           ",
"   .@@@.         @  @                        .@@@@@@.           ",
"    .@@.        @   @                       .@@@@@@@.           ",
"    .@@.       @                     +  &&..@@@@@@@@.           ",
"    .@@.  @@@@@                      +  &&@@@@@@XXX@.X          ",
"    .@@=@@@@@@                   XX  + ..&@@@..@X@X@.X          ",
"    .@@=@@@@@@@                  XX  ..@@&X.. .@@@X@X           ",
"    .@@@.  @@@@                  XXX.@@&&XX   .@@@XX.           ",
"    .@@@.  @@@@                   ..@@@XXX    .@XX#@.           ",
"    .@@@.@@@@@@@                XX.....       XX@##@.           ",
"    .@@@=@  @@@@               XXX  ++       X.@@#@@.           ",
"    .@@@== ====@@              XX  *++*       X.@@@@.           ",
"     .@@.  ====@@              X   *++*        .@@@@.           ",
"     .@@.  @===@@                  *++*        .@@@@.           ",
"     .@@.  @===@@                  *++*        .@#@@.X          ",
"     .@@.   @@@@                    ++         .#$#@.X          ",
"     .@@@.                         **+         .@#XXX           ",
"     .@@@.                          ++         .@@X@@.          ",
"     .@@@.                             ....    .XX@@@.          ",
"      .@@.                            ooooo..  X@@@@@.          ",
"      .@@.                           ooooooo..  @@@#@.          ",
"      .@@.   &   X                   oooooooo.  .@#$#.X         ",
"    &  @@.    &  XXX                 oooooooo.  .@@#XX          ",
"    && @@@.   && XXX                  oooooooo. .@@X@.  $$      ",
"X   && @@@.   &&XXXX          XXXXX   oooooooo. .XX@@.$$$$$     ",
"X   && @@@.   &&XX$$$$       X+.++XXX  ooooooo. X@@X@.$$$$$     ",
"X   &&& .@@   &&X$$$$$$     X+++++XXX   ooooooX .@@XXX$$$$$     ",
"    &&&&&@@  &&&$$$$$$$$    X+.+.XXXXX   ooooXX&.@@@XXX$$$      ",
"   &&&&&&@@ &&& $$$$$$$$   X+++++XXXXX     XXXX& @@@XXX$$       ",
"    &XX& .@&&&  $$$$$$%$   X+.+.+XXXXX      XXX&&.@&&XX$   &    ",
" &  &XXX&.XXXX  $$$$$$%$   X+++++XXXXX       XX&&.@@&&X   &&    ",
" &  &&XX&& XXXX  $XX$%$  & X++.+XXXXX         X&&&@@&&X   && XX ",
"&&   &&X&&&XXXX   X&$$   && X+++XXXXX &   X   XXX&@@&&    &&& XX",
"&&&  &XXX&&&XXXX X        &  X++XXXX &&   X&  XXX.@@&&    &&&XXX",
"&&&   XXX& &XXXXX         && &XXXX   &&  XX&&XXXX.@&&&    X&&XXX",
"X&&& XXXX&  XXX&&   &&XXX&&&XX&X&   &&& XXX&XXXXX &&&& XXXX&XXXX",
"X&&&&XXXX&&  XX&&  XX&XX&&&&XX&XXXXX&&XXXX&&XXX&&&&&&&XX&&XXXX&&",
"XX&&&XXXX&&&& &&XXXXX&&X&&&XXXX&XXX&&&XXXX&&XX&&&&&&&XX&&XXXXX&&"
};
