/* XPM */
static char *ec3c8d8101a1411ee52bd108553689d2pkFGua6TnGdrans0[] = {
/* columns rows colors chars-per-pixel */
"64 64 7 1 ",
"  c #1F0E1C",
". c #647D34",
"X c #9D303B",
"o c #9A6348",
"O c #C0C741",
"+ c #34859D",
"@ c #F5EDBA",
/* pixels */
"...OOO...OO....OOOOOO...O..OOOO.OOOOO......OO...OO....OOOO...OO.",
"..OOOO..OOOOO..O.OO....OO...OOO..OOOOO ....OOOO...O..O..OO..OOO.",
"...OOO  OOOOOO ..OO...OOO.. XO....OOOO ...OOOOOO....OO  O..XOOO ",
" ..OO   .OOOOO    O.  OOOO.XXX ....OOO ...OOOOOOO....O    XXXO  ",
" . O   ...OOOOO       OOO  .X  ...O O .....OOOOOO.....     X    ",
"      .....OOOO       OO       O.OO O .....OOOOOO .....         ",
"      ...   OOO      OO        OOOO   ......OOOOO OO..X         ",
"       .X    OOO               OOOO   .....  OOO  OOOXXX        ",
"       XXX     O               OOOO   ....   OOO  OOOOX         ",
"        X                      OOOoo   X.     O  ......         ",
"                               OOoo   XXX         OOOO          ",
"                               OooO    X          OOOO          ",
"                               OooO               OOOO.         ",
"                               Oooo               OOOO..        ",
"                  .            OOooo           .  OOOO...       ",
"                  .            OOOOo           .  OOOO ...      ",
"                  .            OOOOo           .  OOOO  ..      ",
"                  .            OOOO            .  OOOO   .      ",
"       .          .           ......           .  OOOO          ",
"       .          .           oOOOO            .  OOOO          ",
"       .          .           ooOOO           O.  OOOO          ",
"       .          .           ooooO           .O  OOOO    .     ",
"      O.          .            oooo           .  ......   .     ",
"      .           .            Ooooo          .   OOOO    .     ",
"      .          .O            OOOoo          .  .OOOO    .     ",
"      .          .             OOOOoo         . ..OOOO    .     ",
"      O          .             OOOOoo         . ..OOOO    .     ",
"      .          .             OOOOoo         . . OOOO   .      ",
"      .          .             OOOOo          .   OOOO   .      ",
"      .          .            ........        .   OOOO  O.      ",
"      .         O.             OOOO ...       .   OOOO   .      ",
"      .          .           ..OOOO  ...      .   OOOO   .      ",
"     .O          .          ..oOOOO.   .      .   OOOO   .      ",
"     .           .         ...oOOOO..         .  ......  .O     ",
"     .           .         .. oOOOO..         .   OOOO   .      ",
"     .           O            ooOOO .        .O   OOOO.  .      ",
"     .           .            ooooO@ @       .    OOOO.  .      ",
"     .           .             ooooooo       .    OOOO.  .      ",
"     .           .             Ooo+oo+       .    OOOO   .      ",
"     .           .             OOoooo        O    OOOO  .       ",
"     .           .             OOOO          .    OOOO  .       ",
"     .           O.            OOOO          .    OOOO  .       ",
"     .            .           ......         .    OOOO  .       ",
"     .            .            OOOO          .    OOOO  .       ",
"     .O           .            OOOO          .    OOOO  .       ",
"     .            .            OOOO          O    OOOO  .       ",
"     .            O            OOOO          .   ...... .       ",
"     .            .            OOOO           .   OOOO  .       ",
"     .            .            OOOO           .   OOOO  .O      ",
"     .            .            OOOO           .   OOOO  .       ",
"      .           .O           OOOO           .O  OOOO O.       ",
"      .           .            OOOO           .   OOOO  .       ",
"      .           .            OOOO           .   OOOO  .       ",
"      .           .           ......          .   OOOO  .       ",
"      .           .            OOOO           .   OOOO   .      ",
"      .           .            OOOO           .   OOOO   .      ",
"      .           O.         ..OOOO.          .   OOOO   .      ",
"      .            .        ...OOOO..         .  ......  .      ",
"     O.            .       ... OOOO ..         .  OOOO   .      ",
"      .            .      ...  OOOO  ..        .  OOOO   .O     ",
"      .            .     ...   OOOO   .        .  OOOO   .      ",
"      .            .     ..    OOOO            .  OOOO  O.      ",
"      .            .O         ......           .  OOOO   .      ",
"      .            .           OOOO            .  OOOO   .      "
};
