/* XPM */
static char *ca547631d1224cdaa81c1dd462ff98111m6ofJkwGY0aTzu4[] = {
/* columns rows colors chars-per-pixel */
"64 64 12 1 ",
"  c #1F0E1C",
". c #3E2137",
"X c #647D34",
"o c #584563",
"O c #9D303B",
"+ c #9A6348",
"@ c #E4943A",
"# c #D79B7D",
"$ c #C0C741",
"% c #34859D",
"& c #8C8FAE",
"* c #F5EDBA",
/* pixels */
"  %&&&oooo  X&&&o.++++++++@+@++++.     &&&&&ooXXX    &&&&&&oo   ",
"  %%&&&&&o XX&&&o.++++++OOOOOO+++.     %&&&&&oXXX    &&&&&&&o   ",
" %% &&&&&& XXX&o .++++++OOOOOO+++.     %&&&&& XXXXX   &&&&&&&   ",
" %   &&o   XXXX  .####++OOOOOO+++.    %%% X   $X XXX  &&&&&&    ",
"    XXX   $X  X  .+++++O++OOO@@++.    %%%%X  $XX      $X&&&     ",
"    XXX   $X  X   .++++O+++OOO++.     %% %X           $XXXX$    ",
"    XXXX         X.+++++++++++++.     %% %%          $XXXXXX$   ",
"    XXXX        X .+++++++++++++.     %  X%          $XXXXXXXXX ",
"    XX X        XO.+++++++++++++.     %  X           $XXXX      ",
"    XX $X      XOO.+++++####++++.     %  XO          $XX  X     ",
"    X   $     OX  .+++++++++++++.        XOOO      $XXX   XO    ",
"    X   $X   OX   .+++++++++####.       OX OO    XXXX     XOO   ",
"   XX    $    XO  .+++$+++++++++.      OOX                 X    ",
"   X$         OX $.+++X##+++++++.      O X                OX    ",
"               X XXX$$X####+++++.         XO             OOX    ",
"               XOXXXXXX++++++++. X        XOO             X     ",
"               XO XXXX+++++++X#. $X      OX OO            XO    ",
"              XO   .XX+++++++XX. $X     OO X              XOO   ",
"              XO   .+++++++++XXX$XX     O  X              O     ",
"              O    .+++++++++XXXXXX       OX              O     ",
"                   .++++++++++XXXX       OOXO                   ",
"                    .++++++++++.         O  XO                  ",
"                    .++++++++++.            XOO                 ",
"                  X$.+####+++++.            OX                  ",
"                  XX.+++###++++.           OOX                  ",
"                    .+++++++++.            O XO                 ",
"                    .+++++++++.              O                  ",
"                    .+++++++++.$X                               ",
"                     .++++++++.$X                               ",
"                     .++++++++.XX                               ",
"                  &&&&&+++++++.X                                ",
"                  &&&&+++++##+.                                 ",
"                  &&&&++######.                                 ",
"                  &&&&+++++###.                                 ",
"                  &&&&&&++++++.                                 ",
"                  &&oo+++++++.                                  ",
"                 &&&oo&++++++.                                  ",
"                &&&&&&&&+++++.                                  ",
"                &*&&&&*&+++++.                                  ",
"                &*&  &*&+++++.                                  ",
"                &&&  &&&#++++.                                  ",
"                     .#+++++++.                                 ",
"                     .++++++++.                                 ",
"                     .+++++###.                                 ",
"                     .++++++###.                                ",
"            @        .+++++++++.                                ",
"            @        .##++++++++.                               ",
"            @@       .++++++.+++.   $                @          ",
"            @@       .+++++. .++.X  $                @          ",
"            @@       .+++++. .#++.X $$              @@          ",
"     X      @@@      .+++++.  .+#.X X$      $       @@          ",
"     X      @@@      .++###.   .+.X X$      $       @@          ",
"    XX$     @@@      .++++.       XXX$$    $$      @@@          ",
"   XX$$     @@@      OO+++.$     X XXX$    $$      @@@    X     ",
"$  XX$$      X    $ XOO+++.$$  $ XXXXX     $X       X     X     ",
"X$$XX$X$$    X    $ X$$+++.$$  $$ XXXX     $X    $  X     X    $",
"XX$XXXXX$X $ X   $$ XX$OO$$X$X$$$XXXXX   $ XX    $  XX    X   $$",
"XX$XXXXX$X $$X   $$XXX$OO$XXXX$XXXXXXXX $X XX    XX $X   XX$  $X",
"XXXXXXXXXXX$$$ X $$XXXXX*XXXXXXXXX$$XXX $X XX X$$XX$$X$ XX$$$$OO",
"XX$XXXXOOXX$X$ X$XOOXXXXXXXXX$XXXX$$XOOX$X XX X$$XX$$$$XXXX$$$OO",
"XX$$XXXOOXXXXXXX$XOOXXXXX$XXXXXXXX$$XOOXXXXXXXXX$$XX$$$XOOX$$$XX",
"XXX$XXXXX$$XXXXXXXXXX$XXX$XXXXXXXOOXXXXXXXX$$XXXX$X$$XXXOOXX$XXX",
"$$$$XXX$X$$XXXX$XXXXX$$XXXXXXX$XXOOXXXXXXX$$$XXXX$XXXXXXXXXXXXXX",
"$$$$$XXXX$$XXX$$$XXX$$$XXXXXXX$$XXXXXXXXXX$$$$$XXXXXXXXX$$XXX$$$"
};
