/* XPM */
static char *_59decb4365d4eb7ac2966034510457b7ulk93nYqpxIBl7f[] = {
/* columns rows colors chars-per-pixel */
"64 64 10 1 ",
"  c #1F0E1C",
". c #200E1D",
"X c #3E2137",
"o c #647D34",
"O c #17434B",
"+ c #9D303B",
"@ c #9A6348",
"# c #C0C741",
"$ c #34859D",
"% c #7EC4C1",
/* pixels */
"       o$$$$$$$$$$$$$oo$#$OOOO$$$$$$$$$$$$$$$$OOOoooo$$$OOOOoo  ",
"      oo$$$$OOOO$$$$$o$+#$$$OOOO$$$$$$OOOo$$$$$XXooo@$$$$$$Ooo  ",
"     o o $$OOO$$$ooo$++#+$$$$oOooO$$$$$$$oo$$o$XoXXoo@%$$$$ o o ",
"        o OOO$$%ooo$$$$#$++$oooooO %$$o$$oooooXoXXX o@@%$$  o   ",
"        o@XO$$%ooo$$$$$#$$O$oooo    %%oooooooXoXXX X@@@X        ",
"         o@@$%$oo#$$$+#++$$Oooo      %##ooXXXXXXXX X@@@X        ",
"         X@@$$$$$$$$+O#OO+$o##X        oooXXXXXXXX X@@X         ",
"         X@@$$$$$$$$o$#OOOo#@@X        oo oXXXXXXXX@@@X         ",
"         X@@O$$$$$$$o$#+OOo@@@X        o  XoXXXXXXX@@X          ",
"         X@@O$$$$$o++#$$+Oo@@@@X       o  XXXXXooo@@oo          ",
"         X@@OOOOOOo$o#$$$O@@@@@X           XXXXooo@@ooo         ",
"         X@@XOO$$$oo#+$$$OX@@@@X           XXXXoo@@Xoo          ",
"         X@@XOo$$$+#o+$$O X@@@@X            XXXXX@@X            ",
"         X@@Xoo$$$ooooo$  X@@@@@X           XXXXo@X             ",
"        X@@@Xooo$$oooooO   X@@@@X           XXXXooX             ",
"        X@@@X #oo$ooo#o    X@@@@X           XXXoooX             ",
"        X@@@X X#ooooooo     o@@@@X           Xooooo             ",
"         o@o  XXoooooo      o@@@@X           XXXoXX             ",
"      . o@@X  XXooo#o      oo@@@@@oo          XXXXX             ",
"        o@@X  XXXooo        X@@@@oooo         XXXXX             ",
"        X@@X  XXXXXX        X@@@@@oo           XXXXX            ",
"        X@@X  XXXXXX        X@@@X@@X           XXXXX            ",
"        X@@X  XXXXXX        X@@@ X@X           XXXXX            ",
"        X@@X  XXXXXX        X@@  X@@X           XXXX            ",
"        X@X@  XXXXXX        X@@   X@X           XXXX            ",
"        X@ @ooXXXXXX        X@o   X@@X          XXXXX           ",
"        X@ XooXXXXX         @@oo   X@X           XXXX           ",
"        @@  oooXXXX      ooo@@o     X@X          XXXX           ",
"        ooo  oXXXX      ooo@@X      X@@oo        XXXX           ",
"       oooo   XXXX      ooo@@X       X@ooo        XXX           ",
"        oo    XXXX        @@o        oo@oo        XXX           ",
"           .  XXXX        @ooo        o oo        XXX           ",
"             XXXXX        ooo                     XXX           ",
"             XXXXX         o                      XXX           ",
"             XX XX                                XXXX          ",
"            XXX XX                                XXXX          ",
"            XX  XX                                XXXX          ",
"            XX  XX                               XXXXX          ",
"           XX   XX                               XX XX          ",
"           X    XX                              XXX  X          ",
"          XX    XX                              XX   XX         ",
"          X     XXX                            XX     X         ",
"          X     XXX                           XX      XX        ",
"          X    XXXX                          XX        XX       ",
"               XXXXX                        XX          XX      ",
"              XX XXX                       XX           XX      ",
"              X   XX                      XX                    ",
"             X    XXX                                           ",
"             X     XXX                                          ",
"            XX      XXX                                         ",
"            X         XXX                                       ",
"                       XXXX                                     ",
"                         XXXX                                   ",
"                            XXX                                 ",
"                               X                                ",
"                                                                ",
"                                                                ",
"                                                                ",
"                                                                ",
"                                                                ",
"                                                                ",
"                                                                ",
"                                                                ",
"                                                                "
};
